<mxfile host="app.diagrams.net" modified="2024-02-22T07:13:34.167Z" agent="Mozilla/5.0 (Windows NT 10.0; Win64; x64) AppleWebKit/537.36 (KHTML, like Gecko) Chrome/121.0.0.0 Safari/537.36" etag="yw2PDBvLcmTyb5yG7_3i" version="23.1.5" type="github">
  <diagram name="第 1 页" id="BEYRJexDdjX6FnQx-Mdl">
    <mxGraphModel dx="1430" dy="771" grid="1" gridSize="10" guides="1" tooltips="1" connect="1" arrows="1" fold="1" page="1" pageScale="1" pageWidth="827" pageHeight="1169" math="0" shadow="0">
      <root>
        <mxCell id="0" />
        <mxCell id="1" parent="0" />
        <mxCell id="Dcd_DBjapRFOHx1c4xSy-1" value="" style="rounded=0;whiteSpace=wrap;html=1;fontSize=13;" vertex="1" parent="1">
          <mxGeometry x="10" y="10" width="800" height="370" as="geometry" />
        </mxCell>
        <mxCell id="Dcd_DBjapRFOHx1c4xSy-2" value="BP报告书亮点生成" style="rounded=0;whiteSpace=wrap;html=1;fontSize=13;" vertex="1" parent="1">
          <mxGeometry x="135" y="80" width="120" height="60" as="geometry" />
        </mxCell>
        <mxCell id="Dcd_DBjapRFOHx1c4xSy-4" value="一期技术路线" style="text;html=1;align=center;verticalAlign=middle;whiteSpace=wrap;rounded=0;fontSize=13;" vertex="1" parent="1">
          <mxGeometry x="140" y="20" width="110" height="30" as="geometry" />
        </mxCell>
        <mxCell id="Dcd_DBjapRFOHx1c4xSy-6" value="AI数字人路演" style="rounded=0;whiteSpace=wrap;html=1;fontSize=13;" vertex="1" parent="1">
          <mxGeometry x="135" y="180" width="120" height="60" as="geometry" />
        </mxCell>
        <mxCell id="Dcd_DBjapRFOHx1c4xSy-7" value="AI数字人智能问答" style="rounded=0;whiteSpace=wrap;html=1;fontSize=13;" vertex="1" parent="1">
          <mxGeometry x="135" y="280" width="120" height="60" as="geometry" />
        </mxCell>
        <mxCell id="Dcd_DBjapRFOHx1c4xSy-8" value="阶段一" style="text;html=1;align=center;verticalAlign=middle;whiteSpace=wrap;rounded=0;fontSize=13;" vertex="1" parent="1">
          <mxGeometry x="40" y="95" width="60" height="30" as="geometry" />
        </mxCell>
        <mxCell id="Dcd_DBjapRFOHx1c4xSy-9" value="阶段二" style="text;html=1;align=center;verticalAlign=middle;whiteSpace=wrap;rounded=0;fontSize=13;" vertex="1" parent="1">
          <mxGeometry x="40" y="195" width="60" height="30" as="geometry" />
        </mxCell>
        <mxCell id="Dcd_DBjapRFOHx1c4xSy-10" value="阶段三" style="text;html=1;align=center;verticalAlign=middle;whiteSpace=wrap;rounded=0;fontSize=13;" vertex="1" parent="1">
          <mxGeometry x="40" y="295" width="60" height="30" as="geometry" />
        </mxCell>
      </root>
    </mxGraphModel>
  </diagram>
</mxfile>
